<?xml version="1.0" encoding="UTF-8" standalone="no"?><!DOCTYPE svg PUBLIC "-//W3C//DTD SVG 1.1//EN" "http://www.w3.org/Graphics/SVG/1.1/DTD/svg11.dtd"><svg width="100%" height="100%" viewBox="0 0 3878 2175" version="1.1" xmlns="http://www.w3.org/2000/svg" xmlns:xlink="http://www.w3.org/1999/xlink" xml:space="preserve" xmlns:serif="http://www.serif.com/" style="fill-rule:evenodd;clip-rule:evenodd;stroke-linejoin:round;stroke-miterlimit:2;"><path id="a08a2523-9d19-4e0c-87cb-6ce1a7fd2fc4-2858" d="M327.959,1791.31c33.077,52.417 73.373,99.914 119.699,141.09c1.058,0.965 2.146,1.89 3.233,2.839l98.911,-58.772c-0.732,-0.995 -1.539,-2.109 -2.405,-3.33c-51.644,-71.899 -284.885,-550.234 -286.31,-656.16c-0.18,8.768 -83.94,337.983 66.872,574.333Z" style="fill:#7ec466;fill-rule:nonzero;"/><path id="a62b1d0a-4504-46a8-81c8-bbc6043ad63f-2859" d="M428.573,1943.74c1.528,0.687 3.088,1.354 4.659,1.992l74.205,-44.092c-1.158,-0.669 -2.51,-1.46 -4.06,-2.347c-25.403,-14.84 -100.988,-59.427 -175.41,-107.987c-79.964,-52.193 -158.629,-108.938 -172.28,-138.283c2.841,6.755 90.885,211.965 272.886,290.717Z" style="fill:#7ec466;fill-rule:nonzero;"/><path id="fd401fbc-93ba-42a5-a9a4-5a6900171ed6-2860" d="M3563.33,1984.14c-1.66,61.958 -12.04,123.375 -30.833,182.438c-0.417,1.37 -0.879,2.72 -1.329,4.091l-115.054,0c0.12,-1.229 0.245,-2.6 0.366,-4.091c7.671,-88.192 -36.154,-618.555 -89.037,-710.346c4.633,7.446 244.808,247.683 235.887,527.908Z" style="fill:#7ec466;fill-rule:nonzero;"/><path id="eaa08601-a63b-4214-86e2-4a8f8e2c7e12-2861" d="M3554.7,2166.58c-0.963,1.37 -1.963,2.741 -2.988,4.091l-86.316,0c0.654,-1.166 1.412,-2.537 2.291,-4.091c14.259,-25.734 56.463,-102.675 95.638,-182.438c42.083,-85.717 80.725,-174.683 77.471,-206.883c1.008,7.258 30.141,228.65 -86.096,389.321Z" style="fill:#7ec466;fill-rule:nonzero;"/><path d="M1866.95,2167.47l-1330.53,-0c-65.225,-0.074 -118.875,-53.724 -118.948,-118.949l-0,-1929.57c0.073,-65.226 53.723,-118.876 118.948,-118.949l1330.53,-0c65.226,0.073 118.875,53.723 118.949,118.948l0,1929.57c-0.074,65.226 -53.723,118.875 -118.949,118.949Z" style="fill:#8ebeee;fill-rule:nonzero;"/><path d="M1869.29,2091.58l-1335.22,0c-20.106,-0.023 -36.644,-16.561 -36.667,-36.667l0,-1942.35c0.023,-20.106 16.561,-36.644 36.667,-36.667l1335.22,-0c20.107,0.023 36.645,16.561 36.668,36.667l-0,1942.35c-0.023,20.106 -16.561,36.644 -36.668,36.667Z" style="fill:#edf4f7;fill-rule:nonzero;"/><circle cx="1196.62" cy="36.428" r="10.119" style="fill:#fff;"/><path d="M3872.85,2174.48l-3867.89,0c-2.721,0 -4.961,-2.239 -4.961,-4.961c0,-2.722 2.24,-4.961 4.961,-4.961l3867.89,-0c2.721,-0 4.961,2.239 4.961,4.961c0,2.722 -2.24,4.961 -4.961,4.961Z" style="fill:#edf4f7;fill-rule:nonzero;"/><circle cx="1201.67" cy="1480.61" r="129.167" style="fill:#8ebeee;"/><path d="M1282.54,1232.69l-161.735,-0l-97.641,-477.627c-0.6,-5.966 -0.9,-11.959 -0.9,-17.956c-0,-98.424 80.99,-179.414 179.414,-179.414c98.424,-0 179.414,80.99 179.414,179.414c0,5.926 -0.293,11.848 -0.879,17.745l-97.673,477.838Z" style="fill:#8ebeee;fill-rule:nonzero;"/><path d="M1837.16,590.693l591.142,0c58.546,0 109.712,40.915 122.588,98.027l298.692,1324.87c1.653,7.331 2.487,14.823 2.487,22.337c-0,53.833 -42.8,98.793 -96.567,101.442l-607.697,29.941c-66.999,3.301 -126.698,-44.122 -138.638,-110.131l-169.436,-936.695l-32.05,-177.181l-47.296,-261.465c-0.822,-4.545 -1.235,-9.154 -1.235,-13.772c-0,-42.445 34.926,-77.372 77.371,-77.372c0.213,0 0.426,0.001 0.639,0.003Z" style="fill:#004099;fill-rule:nonzero;"/><path d="M2350.48,619.254l69.004,-0c40.682,-0 76.176,28.585 84.848,68.332l286.704,1314.06c0.822,3.768 1.236,7.614 1.236,11.471c0,28.194 -22.158,51.853 -50.292,53.696l-605.732,39.7c-35.205,2.307 -66.891,-22.466 -73.145,-57.188l-244.646,-1358.21c-0.643,-3.571 -0.967,-7.192 -0.967,-10.821c0,-33.486 27.555,-61.04 61.041,-61.04c0,-0 65.461,-0 65.461,-0c12.986,-0 24.442,8.779 27.818,21.318c2.98,11.07 13.094,18.821 24.558,18.821l310.767,-0c22.593,-0 41.612,-17.613 43.345,-40.139l0,-0Z" style="fill:#fff;fill-rule:nonzero;"/><path d="M2656.19,1040.47c1.936,1.252 3.77,2.655 5.485,4.196l200.235,-51.044l13.66,-48.306l75.596,11.087l-15.871,87.866c-2.626,14.539 -14.619,25.678 -29.312,27.225l-233.797,24.621c-7.232,15.227 -22.65,24.973 -39.508,24.973c-23.994,0 -43.738,-19.744 -43.738,-43.737c0,-23.994 19.744,-43.738 43.738,-43.738c8.33,-0 16.489,2.379 23.512,6.857l0,-0Z" style="fill:#edf4f7;fill-rule:nonzero;"/><circle cx="2513.3" cy="1092.48" r="129.167" style="fill:#1fb4ff;"/><path d="M2594.17,844.562l-161.735,-0l-97.641,-477.627c-0.6,-5.966 -0.901,-11.959 -0.901,-17.956c0,-98.424 80.991,-179.414 179.415,-179.414c98.423,-0 179.414,80.99 179.414,179.414c-0,5.926 -0.294,11.848 -0.88,17.745l-97.672,477.838Z" style="fill:#1fb4ff;fill-rule:nonzero;"/><path d="M2964.68,1000.25l-51.583,44.5l-72.167,62.209l-31.875,-163.084l-3.333,-16.958l-2.625,-13.458l73.125,-127.375l60.958,3.5l4.167,0.25l0.083,0.916l0.959,8.542l12.5,112.417l0.291,2.708l9.5,85.833Z" style="fill:#004099;fill-rule:nonzero;"/><path d="M2627.53,2115.57l-51.083,-0.005l-24.304,-197.033l75.395,0.004l-0.008,197.034Z" style="fill:#edf4f7;fill-rule:nonzero;"/><path d="M2640.55,2165.08l-164.712,-0.006l0,-2.083c0.003,-35.169 28.942,-64.108 64.111,-64.11l100.604,0.004l-0.003,66.195Z" style="fill:#004099;fill-rule:nonzero;"/><path d="M3160.86,2119.73l-51.083,-0.004l-24.304,-197.033l75.396,0.004l-0.009,197.033Z" style="fill:#edf4f7;fill-rule:nonzero;"/><path d="M3173.88,2169.25l-164.711,-0.006l-0,-2.084c0.002,-35.169 28.941,-64.107 64.11,-64.109l100.604,0.004l-0.003,66.195Z" style="fill:#004099;fill-rule:nonzero;"/><path d="M3207.48,2044.72l-137.5,20.833l-200.041,-677l-212.459,681.167l-154.167,-20.834l200,-791.666l0,-62.5l27.084,-93.75l-2.835,-25.375l-19.708,-177.459l-8.541,-76.958l-0.553,-4.971c-0.958,-8.6 4.837,-16.617 13.304,-18.404l64.166,-13.5l104.875,-0l61.875,17.042l4.25,1.166l1.917,0.542l-0.959,8l-14.5,121.583l-0.791,6.667l-14.001,117.208l-3.083,25.709c120.833,87.5 125,175 125,175l166.667,787.5Z" style="fill:#4b5ea2;fill-rule:nonzero;"/><circle cx="2810.2" cy="617.495" r="102.338" style="fill:#edf4f7;"/><path d="M2917.69,1046.95l-202.443,26.474l3.782,28.921l202.443,-26.474l-3.782,-28.921Z" style="fill:#004099;"/><path d="M2443.69,1082.14c1.936,1.252 3.77,2.655 5.485,4.196l200.235,-51.044l13.66,-48.306l75.596,11.087l-15.871,87.866c-2.626,14.538 -14.619,25.677 -29.312,27.225l-233.797,24.621c-7.232,15.227 -22.65,24.973 -39.508,24.973c-23.994,0 -43.738,-19.744 -43.738,-43.738c0,-23.994 19.744,-43.738 43.738,-43.738c8.33,0 16.489,2.38 23.512,6.858l0,-0Z" style="fill:#edf4f7;fill-rule:nonzero;"/><path d="M2751.68,812.131l-35.417,-27.084c-9.575,-3.632 -22.697,6.688 -25,16.667l-50,204.167l104.167,75l14.583,-22.917l-8.333,-245.833Z" style="fill:#004099;fill-rule:nonzero;"/><g opacity="0.2"><path d="M2954.89,911.714c-8.839,3.509 -17.851,6.568 -27,9.167c-2.916,0.874 -5.916,1.708 -8.874,2.5c-19.501,5.41 -39.539,8.652 -59.751,9.666c-8.7,0.368 -17.416,0.131 -26.083,-0.708c-9.304,-0.927 -18.498,-2.741 -27.457,-5.417c-0.293,-0.083 -0.627,-0.167 -0.918,-0.25c-18.63,-5.29 -35.712,-14.995 -49.792,-28.292c-3.147,-3.063 -6.084,-6.334 -8.792,-9.791c-15.724,-19.259 -22.626,-44.279 -19,-68.875c0.349,-2.206 0.822,-4.39 1.418,-6.542c1.57,-5.864 3.647,-11.58 6.207,-17.083c1.126,-2.584 2.377,-5.125 3.709,-7.625l47.083,-15.917l89.667,0l61.875,17.042l4.167,0.25l0.083,0.917l1.917,0.541l-0.959,8l12.5,112.417Z" style="fill-rule:nonzero;"/></g><path d="M2731.78,532.77c-19.139,-2.346 -40.142,-0.687 -55.059,11.531c-14.917,12.217 -19.732,37.616 -5.608,50.743c12.503,11.621 32.055,8.888 48.802,12.192c29.593,6.633 50.999,32.832 51.599,63.153c-0.249,42.392 -40.934,74.495 -48.242,116.254c-4.987,28.499 7.032,58.492 27.813,78.623c20.78,20.131 49.346,31.011 78.128,33.958c28.782,2.947 57.886,-1.554 85.858,-8.949c28.088,-7.425 55.74,-17.96 79.309,-34.95c23.568,-16.989 42.888,-40.94 50.455,-68.99c7.568,-28.051 2.135,-60.212 -17.365,-81.75c-22.33,-24.662 -59.477,-33.143 -78.791,-60.232c-21.652,-30.365 -13.64,-73.609 -31.164,-106.53c-11.699,-21.98 -33.852,-36.972 -57.466,-44.869c-23.614,-7.898 -48.829,-9.457 -73.717,-10.221c-13.082,-0.403 -26.564,-0.536 -38.752,4.233c-12.188,4.769 -22.901,15.638 -23.533,28.71c-0.632,13.073 7.733,17.094 7.733,17.094Z" style="fill:#004099;fill-rule:nonzero;"/></svg>