<?xml version="1.0" encoding="UTF-8" standalone="no"?><!DOCTYPE svg PUBLIC "-//W3C//DTD SVG 1.1//EN" "http://www.w3.org/Graphics/SVG/1.1/DTD/svg11.dtd"><svg width="100%" height="100%" viewBox="0 0 3837 3085" version="1.1" xmlns="http://www.w3.org/2000/svg" xmlns:xlink="http://www.w3.org/1999/xlink" xml:space="preserve" xmlns:serif="http://www.serif.com/" style="fill-rule:evenodd;clip-rule:evenodd;stroke-linejoin:round;stroke-miterlimit:2;"><path d="M3430.21,1508.33c-0,27.708 -0.75,55.222 -2.25,82.542c-5.446,102.14 -21.306,203.457 -47.334,302.375c-0.041,0.042 -0.041,0.042 0,0.083c-3.416,13.084 -7.041,26.125 -10.875,39.042c-0.166,0.625 -0.333,1.208 -0.541,1.792c-5.667,19.375 -11.722,38.569 -18.167,57.583l0,0.042c-207.113,610.972 -784.044,1024.7 -1429.17,1024.88c-713.458,-0 -1311.17,-495.292 -1468.08,-1160.83c-26.825,-113.884 -40.332,-230.499 -40.25,-347.5c0,-23.25 0.528,-46.375 1.583,-69.375c12.502,-281.148 103.842,-553.191 263.542,-784.916c1.917,-2.834 3.875,-5.667 5.875,-8.459c272.583,-390.291 725.167,-645.583 1237.33,-645.583c723.834,0 1328.54,509.833 1474.62,1190c0.024,0.022 0.039,0.051 0.042,0.083c9.417,43.834 16.889,88.334 22.417,133.5c7.522,61.296 11.28,122.995 11.25,184.75Z" style="fill:#0e87ff;fill-rule:nonzero;"/><path d="M3822.98,2773.42c-11.265,40.727 -28.854,79.436 -52.125,114.708c-52,78.625 -126.416,138.75 -208.208,186.875c-5.667,3.375 -11.417,6.667 -17.167,9.917l-57.375,-0l-2,-4.584l0,-0.041l-2.333,-5.292l-0.292,-0.625l-0.125,0.625l-2.291,9.917l-28.166,-0c-2.334,-3.292 -4.625,-6.584 -6.875,-9.917c-3.292,-4.875 -6.459,-9.792 -9.459,-14.792c-5.295,-8.744 -10.027,-17.819 -14.166,-27.166c-0.501,-1.042 -0.917,-2.084 -1.334,-3.125l1.875,-2.042l-7.791,-34.083l15.666,-2.584l-17.166,-52.958c0.625,-1.958 1.333,-3.917 2.083,-5.875c9.625,-24.375 27.708,-42.583 49.167,-57.875c22.083,-15.792 47.791,-28.458 71.416,-41.625c11.084,-6.208 22,-12.75 32.625,-19.667l0,-0.041c13.584,-8.792 26.764,-18.195 39.542,-28.209c0.218,-0.139 0.427,-0.292 0.625,-0.458c0.177,-0.127 0.344,-0.266 0.5,-0.417c57.283,-44.752 105.76,-99.756 142.959,-162.208c-0,-0 0,-0 0,-0c0.023,-0 0.041,-0.018 0.041,-0.041c0,-0 0,-0 0,-0.001c1.25,-2 2.416,-4 3.583,-6.041l-0,-0.042c15.234,-26.201 28.345,-53.58 39.208,-81.875l0,-0.041c0.834,-2.084 1.584,-4.167 2.375,-6.25c1.084,1.833 2.125,3.666 3.125,5.5c0.001,-0.001 0.001,-0.001 0.001,-0.001c0.023,0 0.041,0.019 0.041,0.041c-0,0.001 -0,0.001 -0,0.001c40.417,72.292 44.25,159.375 22.041,240.292Z" style="fill:#7ec466;fill-rule:nonzero;"/><path d="M3800.94,2533.13c0.404,38.581 -3.608,77.082 -11.958,114.75c-3.753,17.238 -8.426,34.262 -14.001,51c-10.821,32.746 -24.963,64.3 -42.208,94.167c-0.958,1.625 -1.875,3.208 -2.875,4.791l0,0.042c-7.37,12.426 -15.366,24.469 -23.958,36.083c-13.003,18.502 -29.067,34.651 -47.5,47.75c-15.056,9.948 -32.084,16.529 -49.917,19.292c-3.333,0.625 -6.75,1.083 -10.208,1.5c-13.792,1.625 -28.042,2.25 -41.708,5.167c-6.923,1.367 -13.662,3.534 -20.084,6.458c-22,10.209 -34.375,31.584 -39.792,54.417c-0.958,4 -1.708,8.042 -2.291,12.083c-4.542,31.042 0.458,63.292 -2.125,94.375c-0.292,3.292 -0.667,6.625 -1.125,9.917l-3.084,-0l-2,-4.583l0,-0.042c0.208,-1.75 0.375,-3.5 0.542,-5.292c1,-15.272 1.125,-30.588 0.375,-45.875c-0.166,-6.875 -0.292,-13.791 -0.208,-20.708c0.083,-5.542 0.291,-11.083 0.708,-16.583l0,-0.042c0.292,-3.417 0.625,-6.792 1.083,-10.167c1.324,-10.334 3.869,-20.474 7.584,-30.208c7.328,-20.276 22.987,-36.481 43,-44.5c6.047,-2.268 12.279,-4.01 18.625,-5.208c13.958,-2.667 28.375,-3.334 42.417,-5.084c1.5,-0.166 3,-0.375 4.458,-0.625c1.875,-0.291 3.708,-0.625 5.541,-0.958c18.372,-3.261 35.726,-10.782 50.667,-21.958c17.757,-14.058 33.195,-30.818 45.75,-49.667c6.833,-9.792 13.334,-19.792 19.375,-30.084c0,0 0,-0 0,-0c0,-0.023 0.018,-0.041 0.041,-0.041c0,-0 0,-0 0.001,-0c0.292,-0.5 0.583,-0.959 0.875,-1.459l0.041,-0.083c25.915,-44.287 44.833,-92.312 56.084,-142.375c0.375,-1.833 0.792,-3.667 1.208,-5.5c7.733,-36.147 11.464,-73.036 11.125,-110l0,-0.042c0,-1.75 -0.041,-3.458 -0.083,-5.208c-0.083,-3.583 5.458,-4.375 5.541,-0.792c0.042,1.75 0.083,3.5 0.042,5.25c0,0 0,0 0.001,0c0.022,0 0.041,0.019 0.041,0.041c-0,0 -0,0.001 -0,0.001Z" style="fill:#fff;fill-rule:nonzero;"/><path d="M3727.52,2796.71c32.653,16.585 72.914,6.977 94.559,-22.566c2.12,-2.914 -2.309,-6.345 -4.431,-3.427c-20.111,27.556 -57.681,36.44 -88.003,20.811c-3.205,-1.647 -5.312,3.544 -2.125,5.182Z" style="fill:#fff;fill-rule:nonzero;"/><path d="M3610.77,2896.71c-11.598,-34.494 -9.768,-72.125 5.123,-105.33c1.479,-3.29 -3.704,-5.411 -5.181,-2.125c-15.432,34.583 -17.257,73.747 -5.108,109.616c1.161,3.419 6.321,1.239 5.167,-2.161l-0.001,-0Z" style="fill:#fff;fill-rule:nonzero;"/><path d="M3785.88,2644.39c-13.786,-3.734 -24.799,-14.178 -29.26,-27.747c-1.116,-3.432 -6.276,-1.248 -5.166,2.161c4.996,14.963 17.113,26.505 32.301,30.768c1.422,0.53 3.032,-0.143 3.653,-1.528c0.575,-1.422 -0.112,-3.065 -1.528,-3.654l0,0Z" style="fill:#fff;fill-rule:nonzero;"/><path d="M3568.94,2813.17l-0,0.041c-1.292,29.754 -5.013,59.353 -11.125,88.5l0,0.042c-0.333,2 -0.792,3.958 -1.208,5.917c-10.057,45.079 -24.156,89.16 -42.126,131.708c-4.958,12 -10.152,23.875 -15.583,35.625c-1.499,3.334 -3.042,6.625 -4.624,9.917l-6.167,-0l-2,-4.583l-0,-0.042l-2.334,-5.292l-0.291,-0.625l-0.125,0.625l-2.292,9.917l-59.584,-0l-11.582,-9.917l-16.876,-14.458l23.583,-25.75l3.875,-4.25l0.584,-0.625l1.875,-2.042l-7.792,-34.083l15.667,-2.583l-17.167,-52.959l-8.125,-25.041l-2.042,-6.292l-11.875,-36.625l-35.833,6.709l-5.834,-20.417c10.741,-24.897 19.68,-50.532 26.75,-76.708c0.042,-0.209 0.125,-0.375 0.167,-0.584c18.931,-70.507 24.611,-143.92 16.75,-216.5l-0,-0.041c-0.25,-2.334 -0.542,-4.709 -0.875,-7l-0,-0.084c-3.572,-30.079 -9.592,-59.816 -18,-88.916c-0.584,-2.209 -1.25,-4.375 -1.876,-6.542c1.917,0.833 3.792,1.625 5.709,2.458l0.042,0.042l0.083,0c3.042,1.333 6.084,2.75 9.042,4.25c71.083,34.542 123.375,99.375 153.083,174.125c0.083,0.208 0.167,0.375 0.25,0.583c15.501,39.186 24.739,80.568 27.375,122.625c0.999,16.273 1.166,32.585 0.501,48.875Z" style="fill:#7ec466;fill-rule:nonzero;"/><path d="M3460.82,3084.92l-6.584,-0c-2.083,-3.375 -4.333,-6.667 -6.583,-9.917c-3.583,-5.042 -7.278,-9.972 -11.083,-14.792c-3.292,-4.166 -6.584,-8.291 -9.875,-12.416c-3.417,-4.292 -6.792,-8.584 -10.084,-13l3.875,-4.25c0.625,0.833 1.25,1.666 1.917,2.5c10.667,14.041 22.208,27.542 32.084,41.958c2.208,3.25 4.333,6.542 6.333,9.917Z" style="fill:#fff;fill-rule:nonzero;"/><path d="M3371.47,2462.54c1.083,1.375 2.208,2.791 3.25,4.208c8.125,10.542 15.805,21.417 23.041,32.625c12.887,19.776 24.334,40.455 34.25,61.875c0.792,1.667 1.584,3.375 2.334,5.083c21.219,46.806 35.051,96.621 41,147.667c0.083,0.5 0.125,0.958 0.166,1.458c1.375,11.917 2.264,23.875 2.667,35.875c1.329,22.598 -0.907,45.265 -6.625,67.167c-0.833,2.875 -1.75,5.708 -2.75,8.458c-2.507,6.74 -5.646,13.227 -9.375,19.375c-2.68,4.487 -5.659,8.789 -8.917,12.875c-1.958,2.5 -4,4.959 -6.166,7.334c-1.25,1.375 -2.542,2.75 -3.834,4.125c-1.083,1.041 -2.125,2.125 -3.208,3.166c-11.25,10.917 -23.667,21.042 -33.833,33.084l2.041,6.291c9.792,-12.416 22.417,-22.708 33.792,-33.541c7.141,-6.715 13.641,-14.08 19.417,-22c0.75,-1.084 1.541,-2.167 2.25,-3.292c3.86,-5.64 7.193,-11.624 9.958,-17.875c1.416,-3.125 2.708,-6.333 3.875,-9.667c6.807,-21.542 9.907,-44.086 9.166,-66.666c-0.134,-14.465 -0.996,-28.914 -2.583,-43.292c-0.167,-1.875 -0.375,-3.708 -0.625,-5.583c-4.225,-34.223 -11.932,-67.926 -23,-100.584c-14.009,-41.43 -33.277,-80.892 -57.333,-117.416c-6.875,-10.459 -14.167,-20.667 -21.875,-30.625c-1,-1.375 -2.042,-2.709 -3.125,-4.084c-2.208,-2.833 -6.167,1.125 -3.958,3.959Z" style="fill:#fff;fill-rule:nonzero;"/><path d="M3478.78,2717.4c36.057,-6.417 62.419,-38.329 61.914,-74.949c-0.035,-1.513 -1.289,-2.739 -2.802,-2.739c-1.487,0 -2.729,1.185 -2.799,2.671c0.533,34.109 -24.115,63.822 -57.736,69.6c-3.551,0.615 -2.108,6.028 1.423,5.417l-0,-0Z" style="fill:#fff;fill-rule:nonzero;"/><path d="M3445.77,2867.54c-30.029,-20.559 -51.224,-51.707 -59.326,-87.185c-0.8,-3.517 -6.216,-2.09 -5.417,1.423c8.5,36.904 30.623,69.273 61.918,90.598c2.986,2.031 5.793,-2.816 2.824,-4.836l0.001,-0Z" style="fill:#fff;fill-rule:nonzero;"/><path d="M3433.68,2560.65c-13.256,5.318 -28.337,3.61 -40.068,-4.538c-2.958,-2.068 -5.763,2.781 -2.824,4.836c12.998,8.939 29.622,10.859 44.315,5.118c1.455,-0.432 2.335,-1.94 1.997,-3.419c-0.397,-1.481 -1.935,-2.379 -3.42,-1.997Z" style="fill:#fff;fill-rule:nonzero;"/><path d="M2638.82,654.059l-2634.68,0c-2.286,-0.05 -4.139,-1.944 -4.139,-4.231c-0,-2.286 1.853,-4.18 4.139,-4.23l2634.68,-0c2.286,0.05 4.139,1.944 4.139,4.23c0,2.287 -1.853,4.181 -4.139,4.231Z" style="fill:#edf4f7;fill-rule:nonzero;"/><ellipse cx="97.285" cy="548.294" rx="45.522" ry="46.537" style="fill:#0e87ff;"/><ellipse cx="254.544" cy="548.294" rx="45.522" ry="46.537" style="fill:#0e87ff;"/><ellipse cx="411.802" cy="548.294" rx="45.522" ry="46.537" style="fill:#0e87ff;"/><path d="M2544.58,513.292l-111.709,-0c-4.576,0.091 -8.292,3.88 -8.292,8.458c0,4.578 3.716,8.367 8.292,8.458l111.709,0c4.576,-0.091 8.292,-3.88 8.292,-8.458c-0,-4.578 -3.716,-8.367 -8.292,-8.458Z" style="fill:#01285e;fill-rule:nonzero;"/><path d="M2544.58,545.042l-111.709,-0c-4.576,0.09 -8.292,3.88 -8.292,8.458c0,4.578 3.716,8.367 8.292,8.458l111.709,0c4.576,-0.091 8.292,-3.88 8.292,-8.458c-0,-4.578 -3.716,-8.368 -8.292,-8.458Z" style="fill:#01285e;fill-rule:nonzero;"/><path d="M2544.58,576.75l-111.709,-0c-4.576,0.091 -8.292,3.881 -8.292,8.458c0,4.578 3.716,8.368 8.292,8.459l111.709,-0c4.576,-0.091 8.292,-3.881 8.292,-8.459c-0,-4.577 -3.716,-8.367 -8.292,-8.458Z" style="fill:#01285e;fill-rule:nonzero;"/><path d="M694.415,826.458l-118.292,0c-66.714,131.344 -113.679,271.818 -139.375,416.875l257.667,0c0.036,0 0.072,0 0.108,0c34.228,0 62.392,-28.164 62.392,-62.392c0,-0.036 0,-0.072 0,-0.108l0,-291.916c-0.045,-34.263 -28.238,-62.437 -62.5,-62.459Z" style="fill:#004099;fill-rule:nonzero;"/><path d="M1570.71,826.458l-535.958,0c-34.263,0.022 -62.455,28.196 -62.5,62.459l-0,291.916c0.041,34.271 28.229,62.459 62.5,62.5l535.958,0c34.27,-0.041 62.458,-28.229 62.5,-62.5l-0,-291.916c-0.046,-34.263 -28.238,-62.437 -62.5,-62.459Z" style="fill:#004099;fill-rule:nonzero;"/><path d="M2447,826.458l-535.959,0c-34.262,0.022 -62.455,28.196 -62.5,62.459l0,291.916c0.042,34.271 28.229,62.459 62.5,62.5l535.959,0c34.27,-0.042 62.458,-28.229 62.5,-62.5l-0,-291.916c-0.046,-34.263 -28.238,-62.436 -62.5,-62.459Z" style="fill:#004099;fill-rule:nonzero;"/><path d="M694.415,1438.96l-279.292,0c-1.041,23 -1.569,46.125 -1.583,69.375c-0.082,117.001 13.425,233.616 40.25,347.5l240.625,0c34.271,-0.041 62.458,-28.229 62.5,-62.5l-0,-291.916c-0.045,-34.263 -28.238,-62.437 -62.5,-62.459Z" style="fill:#004099;fill-rule:nonzero;"/><path d="M1570.71,1438.96l-535.958,0c-34.263,0.022 -62.455,28.196 -62.5,62.459l-0,291.916c0.041,34.271 28.229,62.459 62.5,62.5l535.958,0c34.27,-0.041 62.458,-28.229 62.5,-62.5l-0,-291.916c-0.046,-34.263 -28.238,-62.437 -62.5,-62.459Z" style="fill:#004099;fill-rule:nonzero;"/><path d="M2447,1438.96l-535.959,0c-34.262,0.022 -62.455,28.196 -62.5,62.459l0,291.916c0.042,34.271 28.229,62.459 62.5,62.5l535.959,0c1.708,0 3.416,-0.083 5.125,-0.25c6.695,-0.492 13.26,-2.112 19.416,-4.791c22.764,-9.742 37.697,-32.116 37.959,-56.875l-0,-292.5c-0.045,-34.263 -28.238,-62.437 -62.5,-62.459Z" style="fill:#004099;fill-rule:nonzero;"/><circle cx="705.601" cy="1189.06" r="123.997" style="fill:#7ec466;"/><path d="M688.686,1253.59c-4.338,0 -8.432,-2.047 -11.034,-5.518l-33.828,-45.105c-1.79,-2.387 -2.758,-5.292 -2.758,-8.275c-0,-7.567 6.226,-13.793 13.792,-13.793c4.339,0 8.432,2.047 11.035,5.518l22.131,29.506l56.842,-85.262c2.555,-3.841 6.873,-6.155 11.486,-6.155c7.566,0 13.793,6.227 13.793,13.793c-0,2.728 -0.81,5.396 -2.325,7.664l-67.657,101.485c-2.481,3.721 -6.623,6.012 -11.094,6.138c-0.127,0.002 -0.255,0.004 -0.383,0.004Z" style="fill:#edf4f7;fill-rule:nonzero;"/><circle cx="1609.77" cy="1201.56" r="123.997" style="fill:#7ec466;"/><path d="M1592.85,1266.09c-4.338,0 -8.431,-2.047 -11.033,-5.518l-33.828,-45.105c-1.79,-2.387 -2.758,-5.292 -2.758,-8.275c-0,-7.567 6.226,-13.793 13.792,-13.793c4.338,0 8.432,2.047 11.035,5.518l22.131,29.506l56.842,-85.262c2.557,-3.826 6.866,-6.129 11.468,-6.129c7.567,0 13.793,6.227 13.793,13.793c0,2.718 -0.803,5.376 -2.308,7.638l-67.656,101.485c-2.481,3.721 -6.623,6.012 -11.094,6.138c-0.128,0.002 -0.256,0.004 -0.384,0.004Z" style="fill:#edf4f7;fill-rule:nonzero;"/><path d="M3380.46,1869.73l-38.812,-375.682l-10.245,-154.619l108.635,-19.643c0,-0 16.268,106.293 30.499,168.67c14.044,61.553 -18.709,373.026 -19.577,381.24c11.208,10.022 17.623,24.365 17.623,39.399c-0,28.995 -23.859,52.854 -52.854,52.854c-28.995,0 -52.854,-23.859 -52.854,-52.854c0,-15.017 6.4,-29.344 17.585,-39.365Z" style="fill:#edf4f7;fill-rule:nonzero;"/><path d="M3102.43,2988.02l-53.875,12.316l-73.141,-201.941l79.512,-18.18l47.504,207.805Z" style="fill:#edf4f7;fill-rule:nonzero;"/><path d="M3112.16,2967.29l-13.75,3.125l-1.417,0.333l-62.875,-10.25l-1.833,-0.292l-26.25,31.334c-37.094,8.487 -60.639,45.986 -52.167,83.083l0.084,0.375l0.458,1.833l8,-1.833l165.708,-37.917l-15.958,-69.791Z" style="fill:#4b5ea2;fill-rule:nonzero;"/><path d="M3423.6,3023.24l-55.266,-0l-26.288,-213.167l81.563,0.004l-0.009,213.163Z" style="fill:#edf4f7;fill-rule:nonzero;"/><path d="M3422.16,3005.21l-4.833,-1.958l-54.167,-22.042l-1.75,-0.708l-32.542,24.708c-0.008,0 -0.016,0 -0.024,0c-38.038,0 -69.341,31.296 -69.351,69.334l0,2.25l152.542,0.041l25.667,0l-0,-71.625l-15.542,0Z" style="fill:#4b5ea2;fill-rule:nonzero;"/><path d="M3339.55,1882.36l46.483,441.586c-0,0 61.879,442.154 50.258,503.163c-11.621,61.008 2.905,69.724 2.905,69.724l-106.034,-7.552c0,0 2.905,-37.767 -14.526,-55.198c-17.431,-17.431 -8.715,-69.724 -8.715,-69.724l-205.69,-719.309l-124.922,377.672c-0,0 78.918,306.271 76.013,312.081c-2.905,5.811 50,133.334 50,133.334l-118.367,39.252c0,-0 14.526,-46.483 -5.81,-61.009c-20.336,-14.526 -37.768,-2.905 -20.336,-29.052c17.431,-26.146 -137.338,-218.168 -133.935,-341.92c1.024,-37.227 2.262,-77.17 3.749,-118.093c7.87,-216.553 22.731,-460.566 49.91,-474.955c49.388,-26.147 459.017,-0 459.017,-0Z" style="fill:#4b5ea2;fill-rule:nonzero;"/><circle cx="3119.42" cy="873.934" r="114.328" style="fill:#edf4f7;"/><path d="M3501.16,1572.31l-155.245,39.407l1.078,-43.573l-11.782,-12.5l-23.542,-123.322l-24.996,-319.279l85.785,45.498l0.105,0.081c14.98,16.479 27.509,35.031 37.2,55.083c32.34,65.744 63.406,210.554 79.668,294.663c0.558,1.764 1.637,3.318 3.094,4.458c16.567,15.21 20.194,40.193 8.635,59.485l-0,-0.001Z" style="fill:#004099;fill-rule:nonzero;"/><path d="M2583.75,1713.59c-0,0 214.282,-225.911 216.28,-230.169c14.968,-113.669 58.02,-163.809 64.473,-158.366l111.117,38.495c-0,0 -33.051,104.663 -55.429,166.83c-21.383,59.404 -267.825,204.5 -271.938,211.663c3.103,6.851 4.708,14.286 4.708,21.806c0,28.995 -23.859,52.854 -52.854,52.854c-28.994,0 -52.853,-23.859 -52.853,-52.854c-0,-22.827 14.789,-43.194 36.496,-50.259Z" style="fill:#edf4f7;fill-rule:nonzero;"/><path d="M3029,1133.6c-0,0 -96.205,-47.149 -133.519,45.454c-20.455,52.279 -72.774,179.159 -98.846,257.263c-0.173,0.497 -0.411,0.968 -0.71,1.401c-6.973,10.36 -10.736,22.55 -10.818,35.038c0.009,0.909 -0.086,1.817 -0.282,2.704c-0.197,0.888 105.719,20.596 137.164,76.012l12.472,-13.535l2.217,-9.482l92.322,-394.855Z" style="fill:#004099;fill-rule:nonzero;"/><path d="M3379.06,1930.49c-221.411,45.725 -514.825,-32.887 -514.825,-32.887l78.271,-339.29l-27.827,-355.074c-3.398,-43.421 21.333,-84.123 59.808,-98.546l53.125,-19.899l43.912,-62.866l125.431,4.115l50.142,66.001l39.57,20.993l85.785,45.498l0.378,0.189l-0,0.188l-26.921,261.133l-16.236,157.449c0,-0 49.311,177.083 39.192,200.569c-10.119,23.447 -1.321,12.12 1.133,24.655c2.454,12.536 9.968,13.329 11.101,38.022c1.17,24.656 -2.039,89.75 -2.039,89.75Z" style="fill:#004099;fill-rule:nonzero;"/><path d="M3243.44,833.223c-9.035,-8.913 4.566,-32.51 1.997,-44.938c-2.946,-14.25 -18.648,-14.668 -22.394,-28.728c-4.03,-15.127 -20.146,-23.361 -35.049,-28.155c-38.195,-12.221 -78.958,-14.089 -118.111,-5.41c-17.329,4.232 -34.391,9.488 -51.097,15.741c-11.533,4.058 -0.411,-6.986 -11.944,-2.927c-4.366,0.972 -8.22,3.53 -10.813,7.174c-2.073,3.92 0.722,10.189 5.085,9.395c-14.079,6.209 -28.159,12.418 -42.238,18.627c7.896,8.271 15.792,16.543 23.689,24.815c-11.225,-3.195 -23.193,10.189 -18.768,20.988c3.611,6.915 10.409,11.621 18.152,12.566c12.682,2.468 3.063,14.537 15.981,14.302c12.918,-0.235 102.998,-26.714 109.278,-15.423c4.472,8.04 3.98,18.689 10.365,25.314c8.169,8.474 22.433,5.375 32.831,-0.142c10.397,-5.517 20.942,-13.1 32.639,-11.778c12.212,1.381 21.447,23.947 24.455,35.863c3.008,11.916 1.108,24.454 -0.806,36.594c-2.514,15.943 -27.682,31.886 -30.196,47.829c27.933,7.725 57.897,-16.854 68.941,-59.597c-1.101,-27.019 17.253,-53.117 -1.997,-72.11Z" style="fill:#004099;fill-rule:nonzero;"/><circle cx="2476.43" cy="1793.22" r="123.997" style="fill:#7ec466;"/><path d="M2459.52,1857.76c-4.338,-0 -8.431,-2.047 -11.033,-5.518l-33.829,-45.105c-1.79,-2.387 -2.758,-5.292 -2.758,-8.276c0,-7.566 6.226,-13.792 13.793,-13.792c4.338,-0 8.431,2.047 11.034,5.517l22.132,29.507l56.842,-85.262c2.554,-3.841 6.872,-6.155 11.485,-6.155c7.567,-0 13.793,6.226 13.793,13.793c0,2.728 -0.809,5.396 -2.325,7.664l-67.656,101.484c-2.482,3.722 -6.623,6.013 -11.094,6.138c-0.128,0.003 -0.256,0.005 -0.384,0.005Z" style="fill:#edf4f7;fill-rule:nonzero;"/><path d="M3812.27,3079.95c0,0.005 0,0.024 0,0.029c0,2.712 -2.231,4.944 -4.943,4.944c-0.005,-0 -0.01,-0 -0.015,-0l-1167.88,-0c-2.72,-0 -4.959,-2.239 -4.959,-4.959c0,-2.72 2.239,-4.958 4.959,-4.958l1167.88,0c0.005,-0 0.01,-0 0.015,-0c2.712,-0 4.943,2.232 4.943,4.944Z" style="fill:#edf4f7;fill-rule:nonzero;"/></svg>