<?xml version="1.0" encoding="UTF-8" standalone="no"?><!DOCTYPE svg PUBLIC "-//W3C//DTD SVG 1.1//EN" "http://www.w3.org/Graphics/SVG/1.1/DTD/svg11.dtd"><svg width="100%" height="100%" viewBox="0 0 4500 1875" version="1.1" xmlns="http://www.w3.org/2000/svg" xmlns:xlink="http://www.w3.org/1999/xlink" xml:space="preserve" xmlns:serif="http://www.serif.com/" style="fill-rule:evenodd;clip-rule:evenodd;stroke-linecap:round;stroke-linejoin:round;stroke-miterlimit:1.5;"><path d="M4500,412.5c0,-227.665 -184.835,-412.5 -412.5,-412.5l-3675,-0c-227.665,-0 -412.5,184.835 -412.5,412.5l0,1050c0,227.665 184.835,412.5 412.5,412.5l3675,0c227.665,0 412.5,-184.835 412.5,-412.5l0,-1050Z" style="fill:#edf4f7;"/><g id="Layer1"><path d="M187.5,760.368l0,837.288" style="fill:none;stroke:#031745;stroke-width:83.33px;"/><path d="M358.375,331.681l0,1257.64l850.959,-0l-0,-343.459l-509.208,-0l-0,-662.996" style="fill:none;stroke:#031745;stroke-width:83.33px;"/><path d="M525.833,168.285l-0,1269.6l510.917,-0" style="fill:none;stroke:#0e87ff;stroke-width:83.33px;"/></g><g id="Layer3"><path d="M874.604,1081.25c-25.906,-25.906 -29.839,-180.084 53.623,-263.546c83.461,-83.461 233.519,-83.648 263.545,-53.623c30.025,30.026 27.15,183.662 -53.178,263.99c-80.329,80.329 -238.085,79.084 -263.99,53.179Z" style="fill:#0e87ff;"/></g><g id="Layer11" serif:id="Layer1"><path d="M1568.75,790.936l328.208,0l-0,100.3l-453.831,-0l0,-722.951l125.623,-0l-0,622.651Z" style="fill:#031745;fill-rule:nonzero;"/><path d="M2407.39,722.911l-280.044,0l-58.591,168.325l-130.588,-0l273.093,-722.951l112.713,-0l273.589,722.951l-131.085,-0l-59.087,-168.325Zm-244.79,-101.292l209.536,-0l-104.768,-299.906l-104.768,299.906Z" style="fill:#031745;fill-rule:nonzero;"/><path d="M3142.26,269.577l-225.426,0l0,621.659l-124.63,-0l0,-621.659l-223.439,0l-0,-101.292l573.495,-0l-0,101.292Z" style="fill:#031745;fill-rule:nonzero;"/><path d="M3659.65,568.49l-296.926,-0l0,222.446l347.076,0l0,100.3l-472.699,-0l0,-722.951l469.223,-0l0,101.292l-343.6,0l0,199.606l296.926,0l0,99.307Z" style="fill:#031745;fill-rule:nonzero;"/><path d="M4077.73,613.178l-140.023,-0l0,278.058l-125.622,-0l-0,-722.951l254.224,-0c83.418,-0 147.801,18.718 193.151,56.155c45.35,37.436 68.025,91.605 68.025,162.505c0,48.371 -11.668,88.872 -35.005,121.503c-23.337,32.632 -55.86,57.727 -97.569,75.287l162.366,301.054l0,6.447l-134.56,-0l-144.987,-278.058Zm-140.023,-101.293l129.099,0c42.371,0 75.473,-10.675 99.306,-32.026c23.834,-21.351 35.751,-50.564 35.751,-87.638c-0,-38.73 -11.007,-68.687 -33.02,-89.872c-22.013,-21.186 -54.867,-32.109 -98.561,-32.772l-132.575,0l0,242.308Z" style="fill:#031745;fill-rule:nonzero;"/><path d="M1496.23,1583.87l277.054,-0l0,48.946l-330.156,0l0,-672.318l53.102,-0l0,623.372Z" style="fill:#0e87ff;fill-rule:nonzero;"/><path d="M2196.26,1444.88l-252.119,-0l-57.258,187.935l-54.949,0l214.255,-672.318l48.946,-0l214.255,672.318l-54.949,0l-58.181,-187.935Zm-236.881,-49.408l221.643,-0l-110.822,-360.632l-110.821,360.632Z" style="fill:#0e87ff;fill-rule:nonzero;"/><path d="M2409.12,1632.82l-0,-672.318l158.382,-0c72.958,-0 130.678,23.319 173.159,69.956c42.482,46.638 64.338,110.899 65.57,192.784l-0,140.835c-0,84.348 -21.472,150.225 -64.415,197.632c-42.944,47.407 -103.203,71.111 -180.778,71.111l-151.918,0Zm52.64,-622.448l0,573.502l102.048,-0c60.029,-0 106.512,-18.547 139.451,-55.642c32.939,-37.094 49.87,-90.119 50.793,-159.075l0,-140.836c0,-68.956 -16.084,-122.52 -48.253,-160.691c-32.169,-38.172 -78.73,-57.258 -139.682,-57.258l-104.357,-0Z" style="fill:#0e87ff;fill-rule:nonzero;"/><path d="M2947.99,1632.82l0,-672.318l158.383,-0c72.957,-0 130.677,23.319 173.159,69.956c42.481,46.638 64.338,110.899 65.569,192.784l0,140.835c0,84.348 -21.472,150.225 -64.415,197.632c-42.943,47.407 -103.203,71.111 -180.778,71.111l-151.918,0Zm52.64,-622.448l0,573.502l102.049,-0c60.028,-0 106.512,-18.547 139.45,-55.642c32.939,-37.094 49.87,-90.119 50.793,-159.075l0,-140.836c0,-68.956 -16.084,-122.52 -48.253,-160.691c-32.169,-38.172 -78.73,-57.258 -139.682,-57.258l-104.357,-0Z" style="fill:#0e87ff;fill-rule:nonzero;"/><path d="M3800.4,1310.98l-260.892,0l-0,272.899l300.142,-0l-0,48.946l-352.783,0l0,-672.318l350.474,-0l-0,49.87l-297.833,-0l-0,251.657l260.892,0l0,48.946Z" style="fill:#0e87ff;fill-rule:nonzero;"/><path d="M4166.11,1353l-156.998,0l0,279.825l-53.102,0l0,-672.318l184.241,-0c61.26,-0 108.744,17.47 142.452,52.409c33.709,34.94 50.563,83.501 50.563,145.685c-0,43.405 -10.467,81.5 -31.4,114.284c-20.933,32.785 -49.1,55.488 -84.501,68.11l139.912,285.827l0,6.003l-56.334,0l-134.833,-279.825Zm-156.998,-48.946l140.375,0c39.711,0 71.418,-13.622 95.122,-40.865c23.703,-27.244 35.555,-62.107 35.555,-104.588c-0,-47.1 -12.314,-83.578 -36.941,-109.437c-24.627,-25.858 -59.105,-38.787 -103.433,-38.787l-130.678,-0l0,293.677Z" style="fill:#0e87ff;fill-rule:nonzero;"/></g></svg>