<?xml version="1.0" encoding="UTF-8" standalone="no"?><!DOCTYPE svg PUBLIC "-//W3C//DTD SVG 1.1//EN" "http://www.w3.org/Graphics/SVG/1.1/DTD/svg11.dtd"><svg width="100%" height="100%" viewBox="0 0 4000 2250" version="1.1" xmlns="http://www.w3.org/2000/svg" xmlns:xlink="http://www.w3.org/1999/xlink" xml:space="preserve" xmlns:serif="http://www.serif.com/" style="fill-rule:evenodd;clip-rule:evenodd;stroke-linecap:round;stroke-linejoin:round;stroke-miterlimit:1.5;"><g id="Layer1"><path d="M1434.32,997.214l284.08,0l0,107.478l-417.87,0l-0,-649.327l133.79,0l-0,541.849Z" style="fill:#edf4f7;fill-rule:nonzero;"/><path d="M2170.17,970.902l-234.578,0l-44.597,133.79l-142.263,0l241.714,-649.327l123.978,0l243.052,649.327l-142.263,0l-45.043,-133.79Zm-198.455,-108.369l162.332,-0l-81.612,-243.052l-80.72,243.052Z" style="fill:#edf4f7;fill-rule:nonzero;"/><path d="M2853.39,563.735l-198.901,0l-0,540.957l-133.79,0l-0,-540.957l-196.225,0l-0,-108.37l528.916,0l-0,108.37Z" style="fill:#edf4f7;fill-rule:nonzero;"/><path d="M3320.32,823.287l-256.877,0l-0,173.927l301.473,0l0,107.478l-435.263,0l0,-649.327l434.371,0l0,108.37l-300.581,0l-0,154.75l256.877,0l-0,104.802Z" style="fill:#edf4f7;fill-rule:nonzero;"/><path d="M3683.78,866.992l-106.586,0l0,237.7l-133.79,0l0,-649.327l241.268,0c76.706,0 135.871,17.096 177.495,51.286c41.623,34.191 62.435,82.504 62.435,144.939c0,44.3 -9.588,81.241 -28.765,110.823c-19.176,29.583 -48.238,53.144 -87.186,70.686l140.479,265.35l0,6.243l-143.601,0l-121.749,-237.7Zm-106.586,-108.37l107.924,0c33.596,0 59.611,-8.547 78.044,-25.643c18.434,-17.095 27.65,-40.657 27.65,-70.685c0,-30.623 -8.696,-54.706 -26.089,-72.247c-17.393,-17.541 -44.076,-26.312 -80.051,-26.312l-107.478,0l0,194.887Z" style="fill:#edf4f7;fill-rule:nonzero;"/><path d="M1420.02,1681.77l209.709,0l0,99.165l-329.194,-0l-0,-591.738l119.485,0l0,492.573Z" style="fill:#edf4f7;fill-rule:nonzero;"/><path d="M1989,1659.82l-162.972,-0l-31.7,121.111l-126.395,-0l184.918,-591.738l109.325,0l186.138,591.738l-127.614,-0l-31.7,-121.111Zm-136.962,-99.571l110.545,-0l-55.272,-210.929l-55.273,210.929Z" style="fill:#edf4f7;fill-rule:nonzero;"/><path d="M2203.58,1780.93l-0,-591.738l156.469,0c69.09,0 124.159,21.947 165.207,65.839c41.048,43.893 61.978,104.042 62.791,180.448l-0,95.913c-0,77.761 -20.524,138.79 -61.572,183.089c-41.048,44.299 -97.607,66.449 -169.677,66.449l-153.218,-0Zm119.485,-492.166l0,393.001l35.765,0c39.828,0 67.871,-10.499 84.127,-31.497c16.257,-20.998 24.791,-57.236 25.604,-108.715l0,-102.823c0,-55.272 -7.722,-93.814 -23.165,-115.624c-15.444,-21.811 -41.725,-33.259 -78.845,-34.342l-43.486,-0Z" style="fill:#edf4f7;fill-rule:nonzero;"/><path d="M2673.8,1780.93l-0,-591.738l156.469,0c69.09,0 124.159,21.947 165.207,65.839c41.048,43.893 61.978,104.042 62.791,180.448l-0,95.913c-0,77.761 -20.524,138.79 -61.572,183.089c-41.048,44.299 -97.607,66.449 -169.677,66.449l-153.218,-0Zm119.485,-492.166l0,393.001l35.765,0c39.828,0 67.871,-10.499 84.127,-31.497c16.257,-20.998 24.791,-57.236 25.604,-108.715l0,-102.823c0,-55.272 -7.722,-93.814 -23.165,-115.624c-15.444,-21.811 -41.725,-33.259 -78.845,-34.342l-43.486,-0Z" style="fill:#edf4f7;fill-rule:nonzero;"/><path d="M3449.65,1524.89l-186.138,-0l0,156.875l220.276,0l0,99.165l-339.761,-0l-0,-591.738l338.948,0l0,99.572l-219.463,-0l0,139.806l186.138,-0l-0,96.32Z" style="fill:#edf4f7;fill-rule:nonzero;"/><path d="M3731.7,1564.72l-59.336,0l-0,216.212l-119.486,-0l0,-591.738l190.608,0c59.878,0 106.142,15.512 138.79,46.535c32.649,31.023 48.973,75.118 48.973,132.287c0,78.573 -28.584,133.575 -85.753,165.004l103.635,242.222l0,5.69l-128.426,-0l-89.005,-216.212Zm-59.336,-99.571l67.871,-0c23.843,-0 41.725,-7.925 53.646,-23.775c11.922,-15.85 17.883,-37.052 17.883,-63.604c-0,-59.336 -23.166,-89.004 -69.497,-89.004l-69.903,-0l-0,176.383Z" style="fill:#edf4f7;fill-rule:nonzero;"/></g><g id="Layer11" serif:id="Layer1"><path d="M136.456,943.642l-0,837.289" style="fill:none;stroke:#edf4f7;stroke-width:91.67px;"/><path d="M307.331,523.289l-0,1257.64l850.958,-0l0,-343.459l-509.208,-0l0,-662.996" style="fill:none;stroke:#edf4f7;stroke-width:91.67px;"/><path d="M474.788,351.56l0,1269.6l510.917,-0" style="fill:none;stroke:#edf4f7;stroke-width:91.67px;"/></g><g id="Layer3"><path d="M823.559,1264.52c-25.905,-25.906 -29.839,-180.084 53.623,-263.546c83.462,-83.462 233.52,-83.648 263.545,-53.623c30.026,30.026 27.151,183.662 -53.178,263.99c-80.329,80.329 -238.084,79.084 -263.99,53.179Z" style="fill:#edf4f7;"/></g></svg>