<svg xmlns="http://www.w3.org/2000/svg" xml:space="preserve" style="fill-rule:evenodd;clip-rule:evenodd;stroke-linecap:round;stroke-linejoin:round;stroke-miterlimit:1.5" viewBox="0 0 4500 1875"><path d="M4500 412.5C4500 184.835 4315.165 0 4087.5 0h-3675C184.835 0 0 184.835 0 412.5v1050C0 1690.165 184.835 1875 412.5 1875h3675c227.665 0 412.5-184.835 412.5-412.5v-1050Z" style="fill:#edf4f7"/><path d="M187.5 760.368v837.288M358.375 331.681v1257.64h850.959v-343.459H700.126V582.866" style="fill:none;stroke:#031745;stroke-width:83.33px"/><path d="M525.833 168.285v1269.6h510.917" style="fill:none;stroke:#0e87ff;stroke-width:83.33px"/><path d="M874.604 1081.25c-25.906-25.906-29.839-180.084 53.623-263.546 83.461-83.461 233.519-83.648 263.545-53.623 30.025 30.026 27.15 183.662-53.178 263.99-80.329 80.329-238.085 79.084-263.99 53.179Z" style="fill:#0e87ff"/><path d="M1568.75 790.936h328.208v100.3h-453.831V168.285h125.623v622.651ZM2407.39 722.911h-280.044l-58.591 168.325h-130.588l273.093-722.951h112.713l273.589 722.951h-131.085l-59.087-168.325ZM2162.6 621.619h209.536l-104.768-299.906L2162.6 621.619ZM3142.26 269.577h-225.426v621.659h-124.63V269.577h-223.439V168.285h573.495v101.292ZM3659.65 568.49h-296.926v222.446H3709.8v100.3h-472.699V168.285h469.223v101.292h-343.6v199.606h296.926v99.307ZM4077.73 613.178h-140.023v278.058h-125.622V168.285h254.224c83.418 0 147.801 18.718 193.151 56.155 45.35 37.436 68.025 91.605 68.025 162.505 0 48.371-11.668 88.872-35.005 121.503-23.337 32.632-55.86 57.727-97.569 75.287l162.366 301.054v6.447h-134.56L4077.73 613.178Zm-140.023-101.293h129.099c42.371 0 75.473-10.675 99.306-32.026 23.834-21.351 35.751-50.564 35.751-87.638 0-38.73-11.007-68.687-33.02-89.872-22.013-21.186-54.867-32.109-98.561-32.772h-132.575v242.308Z" style="fill:#031745;fill-rule:nonzero"/><path d="M1496.23 1583.87h277.054v48.946h-330.156V960.498h53.102v623.372ZM2196.26 1444.88h-252.119l-57.258 187.935h-54.949l214.255-672.318h48.946l214.255 672.318h-54.949l-58.181-187.935Zm-236.881-49.408h221.643L2070.2 1034.84l-110.821 360.632ZM2409.12 1632.82V960.502h158.382c72.958 0 130.678 23.319 173.159 69.956 42.482 46.638 64.338 110.899 65.57 192.784v140.835c0 84.348-21.472 150.225-64.415 197.632-42.944 47.407-103.203 71.111-180.778 71.111H2409.12Zm52.64-622.448v573.502h102.048c60.029 0 106.512-18.547 139.451-55.642 32.939-37.094 49.87-90.119 50.793-159.075v-140.836c0-68.956-16.084-122.52-48.253-160.691-32.169-38.172-78.73-57.258-139.682-57.258H2461.76ZM2947.99 1632.82V960.502h158.383c72.957 0 130.677 23.319 173.159 69.956 42.481 46.638 64.338 110.899 65.569 192.784v140.835c0 84.348-21.472 150.225-64.415 197.632-42.943 47.407-103.203 71.111-180.778 71.111H2947.99Zm52.64-622.448v573.502h102.049c60.028 0 106.512-18.547 139.45-55.642 32.939-37.094 49.87-90.119 50.793-159.075v-140.836c0-68.956-16.084-122.52-48.253-160.691-32.169-38.172-78.73-57.258-139.682-57.258H3000.63ZM3800.4 1310.98h-260.892v272.899h300.142v48.946h-352.783V960.507h350.474v49.87h-297.833v251.657H3800.4v48.946ZM4166.11 1353h-156.998v279.825h-53.102V960.507h184.241c61.26 0 108.744 17.47 142.452 52.409 33.709 34.94 50.563 83.501 50.563 145.685 0 43.405-10.467 81.5-31.4 114.284-20.933 32.785-49.1 55.488-84.501 68.11l139.912 285.827v6.003h-56.334L4166.11 1353Zm-156.998-48.946h140.375c39.711 0 71.418-13.622 95.122-40.865 23.703-27.244 35.555-62.107 35.555-104.588 0-47.1-12.314-83.578-36.941-109.437-24.627-25.858-59.105-38.787-103.433-38.787h-130.678v293.677Z" style="fill:#0e87ff;fill-rule:nonzero"/></svg>