<?xml version="1.0" encoding="UTF-8" standalone="no"?><!DOCTYPE svg PUBLIC "-//W3C//DTD SVG 1.1//EN" "http://www.w3.org/Graphics/SVG/1.1/DTD/svg11.dtd"><svg width="100%" height="100%" viewBox="0 0 3140 3140" version="1.1" xmlns="http://www.w3.org/2000/svg" xmlns:xlink="http://www.w3.org/1999/xlink" xml:space="preserve" xmlns:serif="http://www.serif.com/" style="fill-rule:evenodd;clip-rule:evenodd;stroke-linejoin:round;stroke-miterlimit:2;"><path d="M1350.79,2267.29l-505.38,-505.375l190.755,-190.75l287.741,287.75l756.154,-986.625l214.117,164.125l-943.387,1230.88Z" style="fill:#046fd9;fill-rule:nonzero;"/><path d="M1569.79,291.667c-341.396,-0 -662.367,132.958 -903.771,374.375c-241.404,241.375 -374.354,562.375 -374.354,903.75c-0,341.416 132.95,662.375 374.354,903.791c241.404,241.417 562.375,374.334 903.771,374.334c341.4,-0 662.366,-132.917 903.771,-374.334c241.408,-241.416 374.354,-562.375 374.354,-903.791c-0,-341.375 -132.946,-662.375 -374.354,-903.75c-241.405,-241.417 -562.371,-374.375 -903.771,-374.375Zm-0,2847.92c-211.859,0 -417.45,-41.5 -611.079,-123.416c-186.946,-79.084 -354.809,-192.25 -498.93,-336.375c-144.12,-144.084 -257.287,-311.959 -336.362,-498.917c-81.896,-193.625 -123.421,-399.208 -123.421,-611.083c0,-211.834 41.525,-417.459 123.421,-611.084c79.075,-186.916 192.242,-354.791 336.362,-498.916c144.121,-144.125 311.984,-257.292 498.93,-336.375c193.629,-81.875 399.22,-123.417 611.079,-123.417c211.858,0 417.454,41.542 611.079,123.417c186.95,79.083 354.812,192.25 498.929,336.375c144.121,144.125 257.292,312 336.363,498.916c81.912,193.625 123.412,399.25 123.412,611.084c0,211.875 -41.5,417.458 -123.412,611.083c-79.071,186.958 -192.242,354.833 -336.363,498.917c-144.117,144.125 -311.979,257.291 -498.929,336.375c-193.625,81.916 -399.221,123.416 -611.079,123.416Z" style="fill:#046fd9;fill-rule:nonzero;"/></svg>