<?xml version="1.0" encoding="UTF-8" standalone="no"?><!DOCTYPE svg PUBLIC "-//W3C//DTD SVG 1.1//EN" "http://www.w3.org/Graphics/SVG/1.1/DTD/svg11.dtd"><svg width="100%" height="100%" viewBox="0 0 3140 3140" version="1.1" xmlns="http://www.w3.org/2000/svg" xmlns:xlink="http://www.w3.org/1999/xlink" xml:space="preserve" xmlns:serif="http://www.serif.com/" style="fill-rule:evenodd;clip-rule:evenodd;stroke-linejoin:round;stroke-miterlimit:2;"><path d="M2981,1569.79c0,779.387 -631.821,1411.2 -1411.21,1411.2c-779.388,-0 -1411.2,-631.817 -1411.2,-1411.2c-0,-779.388 631.816,-1411.21 1411.2,-1411.21c779.387,-0 1411.21,631.82 1411.21,1411.21Z" style="fill:#004099;fill-rule:nonzero;"/><path d="M1350.79,2267.29l-505.38,-505.375l190.755,-190.759l287.741,287.742l756.154,-986.6l214.117,164.1l-943.387,1230.89Z" style="fill:#01285e;fill-rule:nonzero;"/><path d="M1569.79,291.667c-341.396,-0 -662.367,132.945 -903.771,374.354c-241.404,241.404 -374.354,562.371 -374.354,903.771c-0,341.396 132.95,662.366 374.354,903.771c241.404,241.408 562.375,374.354 903.771,374.354c341.4,-0 662.366,-132.946 903.771,-374.354c241.408,-241.405 374.354,-562.375 374.354,-903.771c-0,-341.4 -132.946,-662.367 -374.354,-903.771c-241.405,-241.409 -562.371,-374.354 -903.771,-374.354Zm-0,2847.93c-211.859,-0 -417.45,-41.542 -611.079,-123.429c-186.946,-79.075 -354.809,-192.242 -498.93,-336.363c-144.12,-144.121 -257.287,-311.983 -336.362,-498.929c-81.896,-193.629 -123.421,-399.221 -123.421,-611.079c0,-211.858 41.525,-417.454 123.421,-611.079c79.075,-186.95 192.242,-354.813 336.362,-498.934c144.121,-144.116 311.984,-257.287 498.93,-336.358c193.629,-81.896 399.22,-123.421 611.079,-123.421c211.858,0 417.454,41.525 611.079,123.421c186.95,79.071 354.812,192.242 498.929,336.358c144.121,144.121 257.292,311.984 336.363,498.934c81.912,193.625 123.412,399.221 123.412,611.079c0,211.858 -41.5,417.45 -123.412,611.079c-79.071,186.946 -192.242,354.808 -336.363,498.929c-144.117,144.121 -311.979,257.288 -498.929,336.363c-193.625,81.887 -399.221,123.429 -611.079,123.429Z" style="fill:#01285e;fill-rule:nonzero;"/></svg>