<?xml version="1.0" encoding="UTF-8" standalone="no"?><!DOCTYPE svg PUBLIC "-//W3C//DTD SVG 1.1//EN" "http://www.w3.org/Graphics/SVG/1.1/DTD/svg11.dtd"><svg width="100%" height="100%" viewBox="0 0 2250 2250" version="1.1" xmlns="http://www.w3.org/2000/svg" xmlns:xlink="http://www.w3.org/1999/xlink" xml:space="preserve" xmlns:serif="http://www.serif.com/" style="fill-rule:evenodd;clip-rule:evenodd;stroke-linecap:round;stroke-linejoin:round;stroke-miterlimit:1.5;"><g id="Layer2"><circle cx="1125" cy="1125" r="1125" style="fill:#031745;"/><path d="M1125,0c620.904,0 1125,504.096 1125,1125c0,620.904 -504.096,1125 -1125,1125c-620.904,0 -1125,-504.096 -1125,-1125c0,-620.904 504.096,-1125 1125,-1125Zm0,141.667c-542.716,-0 -983.333,440.617 -983.333,983.333c-0,542.716 440.617,983.333 983.333,983.333c542.716,0 983.333,-440.617 983.333,-983.333c0,-542.716 -440.617,-983.333 -983.333,-983.333Z" style="fill:#1b85fa;"/></g><g id="Layer1"><path d="M636.637,403.243l0,1443.51l976.726,0l-0,-394.22l-584.467,-0l0,-760.984" style="fill:none;stroke:#edf4f7;stroke-width:108.33px;"/><path d="M1354.21,1099.36c-42.183,-42.184 -48.588,-293.24 87.318,-429.145c135.905,-135.905 380.252,-136.209 429.144,-87.317c48.892,48.892 44.21,299.065 -86.593,429.869c-130.803,130.803 -387.685,128.776 -429.869,86.593Z" style="fill:#1b85fa;"/></g></svg>