<?xml version="1.0" encoding="UTF-8" standalone="no"?>
<!DOCTYPE svg PUBLIC "-//W3C//DTD SVG 1.1//EN" "http://www.w3.org/Graphics/SVG/1.1/DTD/svg11.dtd">
<svg width="100%" height="100%" viewBox="0 0 3140 3140" version="1.1" xmlns="http://www.w3.org/2000/svg" xmlns:xlink="http://www.w3.org/1999/xlink" xml:space="preserve" xmlns:serif="http://www.serif.com/" style="fill-rule:evenodd;clip-rule:evenodd;stroke-linejoin:round;stroke-miterlimit:2;">
    <g transform="matrix(1,0,0,1,-1139.22,-4908.63)">
        <g transform="matrix(4.16667,0,0,4.16667,0,0)">
            <rect x="0" y="0" width="2200" height="2200" style="fill:white;fill-rule:nonzero;"/>
            <path d="M597.601,1722.22L476.31,1600.93L522.091,1555.15L591.149,1624.21L772.626,1387.42L824.014,1426.81L597.601,1722.22Z" style="fill:rgb(126,196,102);fill-rule:nonzero;"/>
            <path d="M650.162,1248.07C568.227,1248.07 491.194,1279.98 433.257,1337.92C375.32,1395.85 343.412,1472.89 343.412,1554.82C343.412,1636.76 375.32,1713.79 433.257,1771.73C491.194,1829.67 568.227,1861.57 650.162,1861.57C732.098,1861.57 809.13,1829.67 867.067,1771.73C925.005,1713.79 956.912,1636.76 956.912,1554.82C956.912,1472.89 925.005,1395.85 867.067,1337.92C809.13,1279.98 732.098,1248.07 650.162,1248.07ZM650.162,1931.57C599.316,1931.57 549.974,1921.61 503.503,1901.95C458.636,1882.97 418.349,1855.81 383.76,1821.22C349.171,1786.64 322.011,1746.35 303.033,1701.48C283.378,1655.01 273.412,1605.67 273.412,1554.82C273.412,1503.98 283.378,1454.63 303.033,1408.16C322.011,1363.3 349.171,1323.01 383.76,1288.42C418.349,1253.83 458.636,1226.67 503.503,1207.69C549.974,1188.04 599.316,1178.07 650.162,1178.07C701.008,1178.07 750.351,1188.04 796.821,1207.69C841.689,1226.67 881.976,1253.83 916.564,1288.42C951.153,1323.01 978.314,1363.3 997.291,1408.16C1016.95,1454.63 1026.91,1503.98 1026.91,1554.82C1026.91,1605.67 1016.95,1655.01 997.291,1701.48C978.314,1746.35 951.153,1786.64 916.564,1821.22C881.976,1855.81 841.689,1882.97 796.821,1901.95C750.351,1921.61 701.008,1931.57 650.162,1931.57Z" style="fill:rgb(126,196,102);fill-rule:nonzero;"/>
        </g>
    </g>
</svg>
