<?xml version="1.0" encoding="UTF-8" standalone="no"?>
<!DOCTYPE svg PUBLIC "-//W3C//DTD SVG 1.1//EN" "http://www.w3.org/Graphics/SVG/1.1/DTD/svg11.dtd">
<svg width="100%" height="100%" viewBox="0 0 3140 3140" version="1.1" xmlns="http://www.w3.org/2000/svg" xmlns:xlink="http://www.w3.org/1999/xlink" xml:space="preserve" xmlns:serif="http://www.serif.com/" style="fill-rule:evenodd;clip-rule:evenodd;stroke-linejoin:round;stroke-miterlimit:2;">
    <g transform="matrix(1,0,0,1,-1139.22,-1118.45)">
        <g transform="matrix(4.16667,0,0,4.16667,0,0)">
            <rect x="0" y="0" width="2200" height="2200" style="fill:white;fill-rule:nonzero;"/>
            <path d="M988.852,645.178C988.852,832.231 837.215,983.867 650.162,983.867C463.109,983.867 311.473,832.231 311.473,645.178C311.473,458.125 463.109,306.488 650.162,306.488C837.215,306.488 988.852,458.125 988.852,645.178Z" style="fill:rgb(126,196,102);fill-rule:nonzero;"/>
            <path d="M597.601,812.577L476.31,691.287L522.091,645.505L591.149,714.563L772.626,477.779L824.014,517.163L597.601,812.577Z" style="fill:white;fill-rule:nonzero;"/>
            <path d="M650.162,338.428C568.227,338.428 491.194,370.335 433.257,428.273C375.32,486.21 343.412,563.242 343.412,645.178C343.412,727.113 375.32,804.146 433.257,862.083C491.194,920.021 568.227,951.928 650.162,951.928C732.098,951.928 809.13,920.021 867.067,862.083C925.005,804.146 956.912,727.113 956.912,645.178C956.912,563.242 925.005,486.21 867.067,428.273C809.13,370.335 732.098,338.428 650.162,338.428ZM650.162,1021.93C599.316,1021.93 549.974,1011.96 503.503,992.307C458.636,973.329 418.349,946.169 383.76,911.58C349.171,876.991 322.011,836.704 303.033,791.837C283.378,745.366 273.412,696.024 273.412,645.178C273.412,594.332 283.378,544.989 303.033,498.519C322.011,453.651 349.171,413.364 383.76,378.775C418.349,344.187 458.636,317.026 503.503,298.049C549.974,278.394 599.316,268.428 650.162,268.428C701.008,268.428 750.351,278.394 796.821,298.049C841.689,317.026 881.976,344.187 916.564,378.775C951.153,413.364 978.314,453.651 997.291,498.519C1016.95,544.989 1026.91,594.332 1026.91,645.178C1026.91,696.024 1016.95,745.366 997.291,791.837C978.314,836.704 951.153,876.991 916.564,911.58C881.976,946.169 841.689,973.329 796.821,992.307C750.351,1011.96 701.008,1021.93 650.162,1021.93Z" style="fill:rgb(84,171,71);fill-rule:nonzero;"/>
        </g>
    </g>
</svg>
