<?xml version="1.0" encoding="UTF-8" standalone="no"?><!DOCTYPE svg PUBLIC "-//W3C//DTD SVG 1.1//EN" "http://www.w3.org/Graphics/SVG/1.1/DTD/svg11.dtd"><svg width="100%" height="100%" viewBox="0 0 3140 3140" version="1.1" xmlns="http://www.w3.org/2000/svg" xmlns:xlink="http://www.w3.org/1999/xlink" xml:space="preserve" xmlns:serif="http://www.serif.com/" style="fill-rule:evenodd;clip-rule:evenodd;stroke-linejoin:round;stroke-miterlimit:2;"><path d="M1760.33,1569.79l427.209,427.25l-190.542,190.541l-427.208,-427.25l-427.25,427.25l-190.542,-190.583l427.25,-427.208l-427.25,-427.25l190.542,-190.5l427.208,427.208l427.25,-427.208l190.542,190.541l-427.209,427.209Z" style="fill:#046fd9;fill-rule:nonzero;"/><path d="M1569.79,291.667c-341.417,-0 -662.375,132.958 -903.792,374.375c-241.375,241.416 -374.333,562.375 -374.333,903.75c-0,341.416 132.958,662.375 374.333,903.791c241.417,241.375 562.375,374.334 903.792,374.334c341.375,-0 662.375,-132.959 903.75,-374.334c241.417,-241.416 374.375,-562.375 374.375,-903.791c-0,-341.375 -132.958,-662.334 -374.375,-903.75c-241.375,-241.417 -562.375,-374.375 -903.75,-374.375Zm-0,2847.92c-211.875,0 -417.458,-41.5 -611.083,-123.416c-186.959,-79.084 -354.834,-192.25 -498.917,-336.334c-144.125,-144.125 -257.292,-312 -336.375,-498.958c-81.917,-193.625 -123.417,-399.208 -123.417,-611.083c-0,-211.834 41.5,-417.459 123.417,-611.084c79.083,-186.916 192.25,-354.791 336.375,-498.916c144.083,-144.125 311.958,-257.292 498.917,-336.375c193.625,-81.875 399.208,-123.417 611.083,-123.417c211.833,0 417.458,41.542 611.083,123.417c186.917,79.083 354.792,192.25 498.917,336.375c144.125,144.125 257.291,312 336.375,498.916c81.875,193.625 123.416,399.25 123.416,611.084c0,211.875 -41.541,417.458 -123.416,611.083c-79.084,186.958 -192.25,354.833 -336.375,498.958c-144.125,144.084 -312,257.25 -498.917,336.334c-193.625,81.916 -399.25,123.416 -611.083,123.416Z" style="fill:#046fd9;fill-rule:nonzero;"/></svg>