<?xml version="1.0" encoding="UTF-8" standalone="no"?><!DOCTYPE svg PUBLIC "-//W3C//DTD SVG 1.1//EN" "http://www.w3.org/Graphics/SVG/1.1/DTD/svg11.dtd"><svg width="100%" height="100%" viewBox="0 0 3140 3140" version="1.1" xmlns="http://www.w3.org/2000/svg" xmlns:xlink="http://www.w3.org/1999/xlink" xml:space="preserve" xmlns:serif="http://www.serif.com/" style="fill-rule:evenodd;clip-rule:evenodd;stroke-linejoin:round;stroke-miterlimit:2;"><path d="M2981,1569.79c0,779.387 -631.833,1411.2 -1411.21,1411.2c-779.417,-0 -1411.21,-631.817 -1411.21,-1411.2c-0,-779.388 631.791,-1411.21 1411.21,-1411.21c779.375,-0 1411.21,631.82 1411.21,1411.21Z" style="fill:#004099;fill-rule:nonzero;"/><path d="M1760.33,1569.79l427.209,427.246l-190.542,190.533l-427.208,-427.246l-427.25,427.246l-190.542,-190.563l427.25,-427.216l-427.25,-427.246l190.542,-190.533l427.208,427.245l427.25,-427.245l190.542,190.562l-427.209,427.217Z" style="fill:#01285e;fill-rule:nonzero;"/><path d="M1569.79,291.667c-341.417,-0 -662.375,132.95 -903.792,374.354c-241.375,241.409 -374.333,562.375 -374.333,903.771c-0,341.4 132.958,662.362 374.333,903.771c241.417,241.404 562.375,374.35 903.792,374.35c341.375,-0 662.375,-132.946 903.75,-374.35c241.417,-241.409 374.375,-562.371 374.375,-903.771c-0,-341.396 -132.958,-662.362 -374.375,-903.771c-241.375,-241.404 -562.375,-374.354 -903.75,-374.354Zm-0,2847.93c-211.875,-0 -417.458,-41.542 -611.083,-123.433c-186.959,-79.071 -354.834,-192.238 -498.917,-336.355c-144.125,-144.121 -257.292,-311.987 -336.375,-498.933c-81.917,-193.625 -123.417,-399.221 -123.417,-611.079c-0,-211.854 41.5,-417.45 123.417,-611.079c79.083,-186.946 192.25,-354.809 336.375,-498.93c144.083,-144.12 311.958,-257.287 498.917,-336.362c193.625,-81.896 399.208,-123.421 611.083,-123.421c211.833,0 417.458,41.525 611.083,123.421c186.917,79.075 354.792,192.242 498.917,336.362c144.125,144.121 257.291,311.984 336.375,498.93c81.875,193.629 123.416,399.225 123.416,611.079c0,211.858 -41.541,417.454 -123.416,611.079c-79.084,186.946 -192.25,354.812 -336.375,498.933c-144.125,144.117 -312,257.284 -498.917,336.355c-193.625,81.891 -399.25,123.433 -611.083,123.433Z" style="fill:#01285e;fill-rule:nonzero;"/></svg>